<svg xmlns="http://www.w3.org/2000/svg" width="1199" height="276" fill="none"><mask id="a" width="211" height="218" x="0" y="0" maskUnits="userSpaceOnUse" style="mask-type:luminance"><path fill="#fff" d="M0 .788h210.93v216.789H0V.787Z"/></mask><g mask="url(#a)"><path fill="#fff" fill-rule="evenodd" d="m42.181 178.442 2.409 2.427.233.24c7.46 7.952 7.39 20.732-.233 28.564-7.623 7.832-20.062 7.904-27.802.24l-.233-.24-2.409-2.45-6.523-6.727c-7.693-7.904-7.693-20.853 0-28.804 7.692-7.904 20.342-7.904 28.035 0l6.523 6.75ZM174.384 67.021l2.338-2.379 27.1-27.843c7.693-7.928 7.693-20.877 0-28.804-7.74-7.928-20.343-7.928-28.035 0l-29.415 30.221-14.029 14.39c-7.693 7.928-7.693 20.877 0 28.805l14.029 14.39 2.502 2.546 27.1 27.844c7.692 7.928 20.295 7.928 28.035 0 7.693-7.904 7.693-20.877 0-28.78l-27.1-27.844-2.525-2.546ZM8.744 8.187v-.024c7.694-7.928 20.32-7.928 28.036 0l166.855 171.456c7.716 7.904 7.716 20.877 0 28.781a19.496 19.496 0 0 1-28.035 0L8.745 36.943c-7.693-7.904-7.693-20.852 0-28.756Zm-.233 82.065c7.693-7.904 20.296-7.904 28.035 0l18.986 19.531 68.206 70.077c7.716 7.903 7.716 20.876 0 28.804a19.537 19.537 0 0 1-28.035 0l-27.077-27.843-60.115-61.765c-7.716-7.904-7.716-20.9 0-28.804Z" clip-rule="evenodd"/></g><path fill="#fff" d="M1134.98 135.487c0-15.916 3.05-29.08 9.14-39.494 6.28-10.414 14.24-18.175 23.87-23.283 9.82-5.11 20.04-7.663 30.65-7.663v37.725c-9.04 0-17.58 1.081-25.64 3.242-7.86 2.161-14.25 5.698-19.16 10.61-4.91 4.912-7.37 11.2-7.37 18.863h-11.49ZM1107.57 213V65.636h38.9V213h-38.9Zm-81.85 3.537c-14.54 0-27.409-3.242-38.608-9.726-11.2-6.681-20.042-15.817-26.526-27.41-6.287-11.592-9.431-24.953-9.431-40.083 0-15.129 3.242-28.49 9.726-40.083 6.68-11.593 15.719-20.63 27.115-27.115 11.592-6.68 24.854-10.02 39.784-10.02 12.97 0 24.86 3.438 35.67 10.315 11 6.68 19.74 16.603 26.23 29.767 6.68 12.968 10.02 28.786 10.02 47.452H987.996l3.537-3.537c0 7.27 1.768 13.656 5.305 19.157 3.732 5.305 8.452 9.432 14.142 12.379 5.9 2.751 12.19 4.126 18.87 4.126 8.05 0 14.64-1.67 19.74-5.01 5.11-3.537 9.04-8.056 11.79-13.558l34.78 13.558c-4.13 8.252-9.53 15.424-16.21 21.515-6.48 5.894-14.24 10.414-23.28 13.557-9.04 3.144-19.36 4.716-30.95 4.716Zm-32.124-92.25-3.537-3.537h71.031l-3.24 3.537c0-7.073-1.67-12.673-5.01-16.799-3.34-4.323-7.47-7.467-12.38-9.432-4.72-1.965-9.34-2.947-13.85-2.947-4.52 0-9.34.982-14.45 2.947-5.11 1.965-9.53 5.109-13.259 9.432-3.537 4.126-5.305 9.726-5.305 16.799Zm-109.609 92.25c-15.326 0-28.982-3.242-40.968-9.726-11.985-6.681-21.318-15.817-27.999-27.41-6.68-11.789-10.02-25.15-10.02-40.083 0-15.129 3.34-28.49 10.02-40.083 6.681-11.593 15.916-20.63 27.705-27.115 11.789-6.68 25.346-10.02 40.672-10.02 14.737 0 28.196 3.634 40.378 10.904 12.182 7.27 21.024 17.782 26.526 31.536l-36.547 12.968c-2.751-5.698-7.073-10.217-12.968-13.557-5.698-3.537-12.084-5.305-19.157-5.305-7.27 0-13.656 1.768-19.158 5.305-5.501 3.34-9.824 8.056-12.968 14.147-3.143 6.091-4.715 13.164-4.715 21.22s1.572 15.13 4.715 21.221c3.144 5.894 7.565 10.61 13.263 14.147 5.698 3.536 12.182 5.305 19.452 5.305 7.074 0 13.46-1.867 19.158-5.6 5.894-3.733 10.217-8.646 12.968-14.737l36.841 12.968c-5.698 13.951-14.638 24.758-26.821 32.421-11.985 7.662-25.444 11.494-40.377 11.494Zm-192.029 58.945c-5.305 0-11.2-1.08-17.684-3.242-6.288-1.964-11.887-4.322-16.8-7.073l14.442-31.536c3.34 1.768 6.386 3.144 9.137 4.126 2.947 1.179 5.501 1.769 7.663 1.769 4.126 0 7.761-1.179 10.905-3.537 3.143-2.161 5.698-5.403 7.663-9.726l17.388-40.967 46.862-119.66h42.736l-66.903 160.037c-4.127 9.825-8.449 18.47-12.968 25.936-4.52 7.663-10.119 13.558-16.8 17.684-6.484 4.126-15.031 6.189-25.641 6.189ZM714.357 213 646.864 65.636H689.6l49.219 119.66L751.493 213h-37.136Zm-101.249 0-1.179-29.767v-44.799c0-8.842-.982-16.407-2.947-22.694-1.768-6.288-4.716-11.102-8.842-14.442-3.93-3.537-9.333-5.305-16.21-5.305-6.287 0-11.986 1.376-17.094 4.126-5.109 2.751-9.431 6.976-12.968 12.674l-34.189-11.79c2.751-6.287 6.779-12.378 12.084-18.273 5.305-6.09 12.182-11.003 20.631-14.736 8.646-3.93 19.157-5.895 31.536-5.895 14.933 0 27.312 2.85 37.136 8.548 10.021 5.698 17.389 13.753 22.104 24.167 4.913 10.217 7.27 22.4 7.074 36.546L649.36 213h-36.252Zm-41.262 3.537c-17.683 0-31.437-3.93-41.262-11.789-9.628-7.86-14.441-18.961-14.441-33.304 0-15.719 5.206-27.508 15.62-35.368 10.61-8.056 25.445-12.084 44.504-12.084h37.431v28.884h-23.873c-12.772 0-21.614 1.572-26.526 4.715-4.912 2.948-7.368 7.172-7.368 12.674 0 4.322 1.965 7.761 5.894 10.315 3.93 2.358 9.432 3.537 16.505 3.537 6.484 0 12.182-1.474 17.094-4.421 5.109-3.144 9.137-7.074 12.084-11.789 2.948-4.912 4.421-9.923 4.421-15.031h9.432c0 20.041-3.832 35.662-11.495 46.861-7.466 11.2-20.14 16.8-38.02 16.8Zm-117.274-81.05c0-15.916 3.046-29.08 9.137-39.494 6.287-10.414 14.245-18.175 23.873-23.283 9.824-5.11 20.041-7.663 30.652-7.663v37.725c-9.039 0-17.586 1.081-25.642 3.242-7.859 2.161-14.245 5.698-19.157 10.61-4.912 4.912-7.368 11.2-7.368 18.863h-11.495ZM427.163 213V65.636h38.904V213h-38.904Zm-43.132 3.537c-16.308 0-28.687-4.028-37.136-12.084-8.252-8.056-12.378-19.55-12.378-34.483V19.658h38.904v141.765c0 6.287 1.375 11.101 4.126 14.441 2.751 3.144 6.779 4.716 12.084 4.716 1.965 0 4.126-.393 6.484-1.179 2.358-.982 4.814-2.358 7.368-4.126l13.557 29.178c-4.715 3.537-10.02 6.386-15.915 8.547-5.698 2.358-11.396 3.537-17.094 3.537ZM310.644 98.646v-33.01h99.618v33.01h-99.618Z"/></svg>